<svg id="Capa_1" enable-background="new 0 0 512 512" height="512" viewBox="0 0 512 512" width="512" xmlns="http://www.w3.org/2000/svg"><g><g><path d="m502 457.396h-492v-102.815c0-17.728 14.371-32.099 32.099-32.099h427.801c17.728 0 32.099 14.371 32.099 32.099v102.815z" fill="#ff9eb1"/><path d="m387.474 67.065c-15.381-7.913-33.002-12.461-52.132-12.461-22.115 0-42.449 6.19-59.63 16.775-12.081 7.443-27.343 7.443-39.424 0-17.181-10.585-37.515-16.775-59.63-16.775-84.655 0-139.752 89.042-101.975 164.8l110.424 181.445c2.975 5.967 8.659 10.277 15.28 11.069 9.742 1.166 18.647-4.991 21.158-14.225l21.247-63.687c2.733-14.625 23.684-14.625 26.417 0l21.247 63.687c2.307 8.481 10.007 14.366 18.795 14.366 7.385 0 14.135-4.177 17.431-10.786l110.635-181.869c17.651-35.398 15.026-73.695-1.416-104.455" fill="#faf7f5"/><path d="m416.923 86.926 32.323 17.678-32.323 17.678-17.677 32.322-17.678-32.322-32.322-17.678 32.322-17.678 17.678-32.322z" fill="#ccf5fc"/></g><g><path d="m311.877 120.033c-14.925 14.926-34.77 23.146-55.877 23.146s-40.952-8.22-55.877-23.146c-3.905-3.905-10.237-3.905-14.143 0-3.905 3.905-3.905 10.237 0 14.143 19.305 19.304 44.663 28.957 70.02 28.957s50.715-9.652 70.02-28.957c3.905-3.905 3.905-10.237 0-14.143s-10.237-3.906-14.143 0z"/><path d="m469.9 312.482h-77.5l53.46-87.881c.146-.239.281-.484.406-.735 17.071-34.235 17.592-72.896 1.684-107.156l6.093-3.333c3.207-1.754 5.202-5.118 5.202-8.773s-1.995-7.02-5.202-8.773l-29.752-16.272-16.272-29.752c-1.754-3.207-5.118-5.202-8.773-5.202s-7.02 1.995-8.773 5.202l-3.281 6c-16.152-7.436-33.567-11.201-51.849-11.201-23.05 0-45.484 6.314-64.875 18.26-8.924 5.497-20.01 5.497-28.934 0-19.391-11.946-41.825-18.26-64.875-18.26-43.245 0-82.647 21.955-105.403 58.729-22.755 36.774-24.819 81.833-5.521 120.534.125.251.261.497.407.736l53.481 87.879h-77.523c-23.214 0-42.1 18.886-42.1 42.1v102.814c0 5.523 4.477 10 10 10h200.794c5.523 0 10-4.477 10-10s-4.477-10-10-10h-190.794v-92.814c0-12.186 9.914-22.1 22.1-22.1h89.694l44.572 73.24c4.625 8.949 13.127 14.963 22.833 16.125 1.218.146 2.426.217 3.622.217 13.113 0 24.647-8.564 28.291-21.446l21.167-63.447c.145-.434.26-.877.344-1.327.348-1.862 1.485-2.806 3.379-2.806s3.031.944 3.379 2.806c.084.45.199.893.344 1.327l21.167 63.448c3.582 12.641 15.199 21.441 28.361 21.441 11.097 0 21.083-6.085 26.171-15.913l44.812-73.664h89.664c12.186 0 22.1 9.914 22.1 22.1v92.814h-190.793c-5.523 0-10 4.477-10 10s4.477 10 10 10h200.793c5.523 0 10-4.477 10-10v-102.817c0-23.214-18.886-42.1-42.1-42.1zm-61.75-220.757c.917 1.678 2.297 3.058 3.975 3.975l16.28 8.904-16.28 8.904c-1.678.917-3.058 2.297-3.975 3.975l-8.904 16.28-8.904-16.28c-.917-1.678-2.297-3.058-3.975-3.975l-16.281-8.904 16.281-8.904c1.678-.917 3.058-2.297 3.975-3.975l8.904-16.28zm-90.011 304.35c-.146.239-.281.484-.406.735-1.614 3.237-4.864 5.249-8.482 5.249-4.266 0-8.026-2.875-9.146-6.99-.049-.182-.104-.362-.164-.54l-21.057-63.119c-2.38-10.857-11.684-18.372-22.884-18.372s-20.504 7.515-22.884 18.372l-21.057 63.119c-.06.178-.114.358-.164.54-1.245 4.577-5.589 7.486-10.32 6.92-3.1-.371-5.981-2.518-7.519-5.603-.125-.251-.261-.496-.407-.736l-110.2-181.077c-15.988-32.373-14.198-69.993 4.813-100.717 19.083-30.84 52.129-49.252 88.396-49.252 19.344 0 38.149 5.287 54.385 15.289 15.395 9.483 34.52 9.483 49.914 0 16.235-10.002 35.042-15.289 54.385-15.289 14.884 0 29.059 2.958 42.224 8.8l-3.366 6.154-29.753 16.272c-3.207 1.754-5.202 5.118-5.202 8.773s1.995 7.02 5.202 8.773l29.753 16.274 16.272 29.752c1.754 3.207 5.118 5.202 8.773 5.202s7.02-1.995 8.773-5.202l16.272-29.752 6.065-3.317c12.697 28.288 12.127 60.034-1.806 88.241z"/><path d="m265.42 453.57c-1.605-3.852-5.56-6.379-9.736-6.154-4.06.219-7.655 2.911-8.964 6.767-1.338 3.942-.031 8.459 3.245 11.046 3.286 2.594 7.934 2.857 11.492.657 4.121-2.549 5.795-7.846 3.963-12.316z"/></g></g></svg>