<svg id="Layer_1" enable-background="new 0 0 128 128" height="512" viewBox="0 0 128 128" width="512" xmlns="http://www.w3.org/2000/svg"><g><g><g><path d="m104.221 14.2c-9.689-9.69-25.459-9.69-35.148 0l-3.572 3.572-3.573-3.572c-9.69-9.69-25.458-9.69-35.148 0s-9.69 25.458 0 35.148l32.714 32.714c1.656 1.656 3.831 2.484 6.006 2.484 2.176 0 4.351-.828 6.007-2.484l32.714-32.714c9.691-9.691 9.691-25.458 0-35.148z" fill="#e6e7e8"/></g><g><path d="m121.688 46.412c-1.066-1.188-2.597-1.88-4.198-1.896-2.849-.007-5.301 2.162-5.733 5.096l-2.615 17.707c-1.59-.2-3.185.305-4.37 1.425l-8.582 8.104c-2.116 1.998-4.506 3.683-7.098 5.006l-2.558 1.305c-2.516 1.278-4.658 2.902-6.365 4.826-5.685 6.381-4.204 16.178-4.009 17.316v15.78c0 1.657 1.343 3 3 3h16.584c1.657 0 3-1.343 3-3v-12.85c0-1.574.737-3.053 1.996-3.997 3.627-2.719 10.274-7.815 14.079-11.409 3.413-3.223 4.543-7.569 4.891-10.65.286-2.584 3.41-31.379 3.411-31.389.156-1.591-.367-3.185-1.433-4.374z" fill="#e6e7e8"/></g><g><path d="m44.469 83.159-2.558-1.305c-2.593-1.323-4.985-3.009-7.101-5.008l-8.58-8.102c-1.186-1.12-2.785-1.625-4.371-1.425l-2.615-17.707c-.43-2.915-2.866-5.096-5.678-5.096-.019 0-.037 0-.056 0-1.601.016-3.131.708-4.197 1.896-1.067 1.189-1.59 2.783-1.433 4.383 0 0 3.125 28.795 3.411 31.381.346 3.079 1.476 7.425 4.89 10.648 3.797 3.586 10.451 8.687 14.08 11.409 1.259.944 1.995 2.423 1.995 3.997v12.85c0 1.657 1.343 3 3 3h16.585c1.657 0 3-1.343 3-3v-15.78c.196-1.139 1.675-10.936-4.008-17.315-1.709-1.926-3.851-3.55-6.364-4.826z" fill="#e6e7e8"/></g></g><g><g><path d="m99.514 10.907c-9.316-9.316-24.419-9.316-33.734 0l-4.279 4.279-4.279-4.279c-9.315-9.316-24.419-9.316-33.734 0-9.315 9.315-9.315 24.418 0 33.734l4.279 4.279 28.435 28.435c2.927 2.927 7.672 2.927 10.599 0l28.434-28.435 4.279-4.279c9.315-9.316 9.315-24.419 0-33.734z" fill="#0089ef"/></g><g><path d="m23.487 13.907c9.316-9.316 24.419-9.316 33.734 0l4.279 4.279 4.279-4.279c9.315-9.316 24.419-9.316 33.734 0 4.276 4.276 6.564 9.772 6.915 15.367.413-6.595-1.875-13.327-6.915-18.367-9.316-9.316-24.419-9.316-33.734 0l-4.279 4.279-4.279-4.279c-9.315-9.316-24.419-9.316-33.734 0-5.04 5.039-7.328 11.772-6.915 18.367.351-5.595 2.639-11.092 6.915-15.367z" fill="#fff"/></g><g><path d="m78.554 37.828h-12.146v-12.146c0-1.605-1.301-2.906-2.906-2.906h-4.003c-1.605 0-2.906 1.301-2.906 2.906v12.146h-12.146c-1.605 0-2.906 1.301-2.906 2.906v4.003c0 1.605 1.301 2.906 2.906 2.906h12.146v12.146c0 1.605 1.301 2.906 2.906 2.906h4.003c1.605 0 2.906-1.301 2.906-2.906v-12.147h12.146c1.605 0 2.906-1.301 2.906-2.906v-4.003c-.001-1.604-1.302-2.905-2.906-2.905z" fill="#fff"/></g><g><path d="m113.48 41.516c-2.395-.024-4.384 1.872-4.734 4.242l-2.773 18.781c-1.515-.539-3.266-.248-4.515.932l-8.579 8.102c-2.185 2.064-4.654 3.805-7.332 5.171l-2.559 1.306c-2.284 1.16-4.372 2.686-6.071 4.599-5.656 6.349-3.756 16.564-3.756 16.564v15.867c0 1.105.895 2 2 2h16.585c1.105 0 2-.895 2-2v-12.85c0-1.887.884-3.663 2.394-4.795 3.556-2.667 10.22-7.772 13.995-11.337 3.228-3.048 4.267-7.226 4.583-10.033.286-2.584 3.411-31.377 3.411-31.377.266-2.741-1.865-5.143-4.649-5.172z" fill="#ffd7e5"/><g><g><path d="m9.521 41.516c2.395-.024 4.384 1.872 4.734 4.242l2.773 18.781c1.515-.539 3.266-.248 4.515.932l8.579 8.102c2.185 2.064 4.654 3.805 7.332 5.171l2.559 1.306c2.284 1.16 4.372 2.686 6.071 4.599 5.656 6.349 3.756 16.564 3.756 16.564v15.867c0 1.105-.895 2-2 2h-16.583c-1.105 0-2-.895-2-2v-12.85c0-1.887-.884-3.663-2.394-4.795-3.556-2.667-10.22-7.772-13.995-11.337-3.228-3.048-4.267-7.226-4.583-10.033-.286-2.585-3.41-31.378-3.41-31.378-.269-2.74 1.862-5.142 4.646-5.171z" fill="#ffd7e5"/><g fill="#3a2c60"><path d="m91.504 51.237-5.626 5.625c-.391.391-.391 1.023 0 1.414.195.195.451.293.707.293s.512-.098.707-.293l5.626-5.625c.391-.391.391-1.023 0-1.414s-1.023-.39-1.414 0z"/><path d="m83.979 60.175c-.391-.391-1.023-.391-1.414 0l-16.472 16.473c-2.532 2.532-6.652 2.532-9.185 0l-32.714-32.714c-8.91-8.911-8.91-23.41 0-32.32 8.911-8.911 23.409-8.91 32.32 0l4.279 4.279c.391.391 1.023.391 1.414 0l4.28-4.279c8.911-8.911 23.41-8.909 32.319 0 8.91 8.911 8.91 23.409 0 32.32l-4.279 4.279c-.391.391-.391 1.023 0 1.414s1.023.391 1.414 0l4.279-4.279c9.69-9.691 9.69-25.458 0-35.148-9.689-9.69-25.456-9.691-35.147 0l-3.573 3.572-3.572-3.572c-9.69-9.69-25.458-9.691-35.148 0-9.69 9.69-9.69 25.458 0 35.148l32.714 32.714c1.604 1.604 3.737 2.488 6.006 2.488s4.402-.884 6.006-2.488l16.473-16.473c.391-.39.391-1.023 0-1.414z"/><path d="m117.688 42.413c-1.066-1.189-2.597-1.88-4.199-1.896-2.805.004-5.299 2.162-5.733 5.096l-2.614 17.707c-1.589-.201-3.187.305-4.371 1.425l-8.579 8.102c-2.117 1.999-4.506 3.684-7.1 5.007l-2.559 1.305c-2.515 1.278-4.656 2.902-6.365 4.826-5.684 6.381-4.204 16.178-4.009 17.317v15.78c0 1.654 1.346 3 3 3h16.585c1.654 0 3-1.346 3-3v-12.85c0-1.565.745-3.059 1.993-3.995 3.63-2.722 10.284-7.824 14.082-11.41 3.413-3.224 4.543-7.57 4.891-10.65.286-2.584 3.41-31.379 3.411-31.39.156-1.592-.366-3.185-1.433-4.374zm-3.966 35.54c-.31 2.747-1.303 6.61-4.275 9.418-3.726 3.519-10.313 8.568-13.908 11.265-1.75 1.312-2.794 3.403-2.794 5.595v12.85c0 .551-.448 1-1 1h-16.586c-.552 0-1-.449-1-1v-15.868c0-.062-.006-.123-.017-.183-.019-.098-1.749-9.801 3.521-15.717 1.542-1.737 3.485-3.208 5.777-4.373l2.56-1.305c2.764-1.41 5.309-3.205 7.564-5.334l8.579-8.102c.638-.603 1.468-.921 2.321-.921.392 0 .788.067 1.173.204h.001c.505.182.952.474 1.326.869.627.665.958 1.533.933 2.447-.026.913-.407 1.762-1.071 2.389l-15.302 14.45c-.401.379-.425 1.017-.04 1.414.351.361 1.045.385 1.413.041l15.302-14.45c1.053-.994 1.655-2.339 1.697-3.786.041-1.448-.483-2.825-1.479-3.877-.397-.42-.851-.76-1.347-1.031l2.664-18.042c.289-1.951 1.917-3.411 3.735-3.388 1.057.011 2.026.448 2.729 1.232.704.784 1.034 1.793.933 2.831.001-.002-3.123 28.789-3.409 31.372z"/><path d="m40.469 79.159-2.559-1.305c-2.595-1.324-4.983-3.009-7.1-5.007l-8.58-8.102c-1.186-1.12-2.787-1.622-4.371-1.425l-2.615-17.707c-.43-2.915-2.866-5.096-5.678-5.096-.019 0-.037 0-.056 0-1.601.016-3.131.708-4.197 1.896-1.067 1.189-1.59 2.783-1.433 4.383 0 0 3.125 28.795 3.411 31.381.346 3.078 1.476 7.424 4.89 10.648 3.797 3.586 10.453 8.688 14.082 11.41 1.249.937 1.994 2.43 1.994 3.995v12.85c0 1.654 1.346 3 3 3h16.585c1.654 0 3-1.346 3-3v-15.78c.196-1.139 1.675-10.936-4.008-17.316-1.709-1.924-3.851-3.548-6.365-4.825zm8.389 21.871c-.011.06-.017.122-.017.182v15.868c0 .551-.449 1-1 1h-16.584c-.551 0-1-.449-1-1v-12.85c0-2.191-1.044-4.283-2.793-5.595-3.595-2.697-10.183-7.746-13.909-11.265-2.974-2.809-3.966-6.672-4.275-9.416-.286-2.583-3.41-31.364-3.41-31.365-.103-1.048.228-2.058.932-2.842.703-.783 1.672-1.221 2.729-1.231 1.821-.017 3.447 1.438 3.735 3.388l2.664 18.043c-.496.27-.951.611-1.348 1.031-.994 1.053-1.519 2.43-1.478 3.877.042 1.447.645 2.792 1.697 3.786l15.302 14.45c.465.391 1.076.317 1.414-.041.379-.402.361-1.034-.041-1.414l-15.302-14.45c-.665-.627-1.045-1.476-1.071-2.389-.026-.914.305-1.782.932-2.446.374-.396.82-.688 1.326-.87h.002c1.224-.437 2.563-.162 3.493.717l8.58 8.102c2.254 2.129 4.799 3.924 7.564 5.334l2.561 1.306c2.292 1.165 4.235 2.635 5.778 4.373 5.255 5.9 3.537 15.62 3.519 15.717z"/></g></g></g></g></g></g></svg>