<svg id="Capa_1" enable-background="new 0 0 342.063 342.063" height="512" viewBox="0 0 342.063 342.063" width="512" xmlns="http://www.w3.org/2000/svg"><g><path d="m289.172 98.622c-21.513-22.32-56.882-58.759-75.796-76.852-.456-.436-1.044-.66-1.675-.66h-158.869c-12.119 0-21.943 9.824-21.943 21.943v277.067c0 12.118 9.824 21.943 21.942 21.943h215.066c12.119 0 21.943-9.825 21.943-21.943v-219.818c0-.633-.228-1.224-.668-1.68z" fill="#d5d6db"/><path d="m234.019 0h-162.3c-10.767 0-19.496 8.729-19.496 19.496v281.961c0 10.768 8.729 19.496 19.497 19.496h219.958c10.768 0 19.496-8.729 19.496-19.496v-223.251c-21.704-22.523-58.23-60.168-77.155-78.206z" fill="#ebf0f3"/><g fill="#d5d6db"><path d="m234.019 0v58.71c0 10.767 8.729 19.496 19.496 19.496h57.659c-18.925-18.037-55.451-55.683-77.155-78.206z"/><path d="m134.224 173.586h37.019v12.553h-37.019z"/><path d="m180.643 173.586h56.238v12.553h-56.238z"/><path d="m247.008 173.586h30.323v12.553h-30.323z"/><path d="m134.224 198.766h48.834v12.553h-48.834z"/><path d="m194.242 198.766h83.09v12.553h-83.09z"/><path d="m134.224 223.271h37.019v12.553h-37.019z"/><path d="m180.643 223.271h56.238v12.553h-56.238z"/><path d="m247.008 223.271h30.323v12.553h-30.323z"/><path d="m134.224 248.45h48.834v12.553h-48.834z"/><path d="m194.242 248.45h20.797v12.553h-20.797z"/><path d="m134.224 272.956h37.019v12.553h-37.019z"/><path d="m180.643 272.956h36.851v12.553h-36.851z"/></g><path d="m162.003 157.388-23.873-68.001-18.983 45.822h-36.286v-4.369h33.367l22.243-53.682 23.037 65.621 6.242-22.602h25.294l16.278-25.49 12.749 35.688 10.791-15.881h36.222v4.369h-33.909l-14.324 21.078-12.647-35.39-12.762 19.995h-24.364z" fill="#d15241"/><path d="m82.86 173.586h37.732v37.732h-37.732z" fill="#27a2db"/><path d="m82.86 248.45h37.732v37.732h-37.732z" fill="#e56353"/><path d="m100.678 274.704-7.062-7.062 3.089-3.089 3.972 3.972 8.303-8.303 3.089 3.089z" fill="#d5d6db"/></g></svg>