<svg id="Layer_1" enable-background="new 0 0 496 496" height="512" viewBox="0 0 496 496" width="512" xmlns="http://www.w3.org/2000/svg"><path d="m200.248 41.933v164.787c0 14.565-11.81 26.372-26.379 26.372h-71.658v29.787h72.951c30.353 0 54.958-24.599 54.958-54.944v-166.002c0-8.247-6.687-14.933-14.937-14.933-8.248 0-14.935 6.686-14.935 14.933z" fill="#ffd3be"/><path d="m200.248 454.067v-164.787c0-14.565-11.81-26.372-26.379-26.372h-71.658v-29.787h72.951c30.353 0 54.958 24.599 54.958 54.944v166.001c0 8.247-6.687 14.933-14.937 14.933-8.248.001-14.935-6.685-14.935-14.932z" fill="#ffa991"/><path d="m49.019 144.072c-73.975 71.221-62.863 222.993 24.139 257.309 84.098 33.171 113.646-56.623 77.09-100.05-33.114-39.338-24.143-61.825 7.941-126.46s-38.349-98.984-109.17-30.799z" fill="#ff5a7f"/><path d="m158.19 174.871c14.946-30.109 7.639-53.639-11.584-63.301 11.841 12.769 13.188 33.236-1.745 56.902-38.993 61.795-50.24 83.474-18.227 125.424 9.996 13.1 14.103 29.461 12.895 45.285-.529 6.931 3.718 15.195 1.198 21.601-2.745 6.977-12.438 12.018-17.426 17.58-13.383 14.927-34.613 23.276-62.486 17.079 3.931 2.248 8.041 4.244 12.344 5.941 84.098 33.171 113.646-56.623 77.09-100.05-33.115-39.338-24.143-61.825 7.941-126.461z" fill="#d04d7f"/><path d="m159.786 122.893c-16.684-24.154-63.634-24.199-110.767 21.179-73.769 71.022-62.916 222.133 23.42 257.007-42.718-35.456-56.756-106.47-40.015-167.957 2.304-8.463-4.08-19.259-.604-27.243 3.163-7.266 16.085-11.773 20.227-18.457 21.47-34.643 68.205-71.35 107.739-64.529z" fill="#ff8595"/><g fill="#846069"><path d="m135.263 225.485c-3.016-.975-16.147-.661-22.306-15.957-3.023-7.508-2.764-14.948-2.755-15.172.219-4.399-3.161-8.151-7.563-8.387-4.435-.243-8.18 3.149-8.417 7.561-.057 1.073-.443 10.785 3.647 21.354 3.997 10.332 12.967 23.136 32.98 26.009.996-4.848 2.479-9.947 4.414-15.408z"/><path d="m129.37 254.923c-12.292.295-35.359 9.493-38.792 42.819-.453 4.395 2.743 8.325 7.138 8.778 4.385.453 8.324-2.735 8.778-7.138 2.801-27.191 21.398-28.423 23.577-28.473.607-.005 1.195-.083 1.763-.216-1.633-5.194-2.43-10.384-2.464-15.77z"/><path d="m96.716 253.197h-21.172c-4.418 0-8-3.582-8-8s3.582-8 8-8h21.171c4.418 0 8 3.582 8 8s-3.581 8-7.999 8z"/></g><path d="m295.752 454.067v-164.787c0-14.565 11.81-26.372 26.379-26.372h71.658v-29.787h-72.951c-30.353 0-54.958 24.599-54.958 54.944v166.001c0 8.247 6.687 14.933 14.937 14.933s14.935-6.685 14.935-14.932z" fill="#ffa991"/><path d="m295.752 41.933v164.787c0 14.565 11.81 26.372 26.379 26.372h71.658v29.787h-72.951c-30.353 0-54.958-24.599-54.958-54.944v-166.002c0-8.247 6.687-14.933 14.937-14.933s14.935 6.686 14.935 14.933z" fill="#ffd3be"/><path d="m446.981 144.072c73.975 71.221 62.863 222.993-24.139 257.309-84.098 33.171-113.646-56.623-77.09-100.05 33.114-39.338 24.143-61.825-7.941-126.46s38.349-98.984 109.17-30.799z" fill="#ff5a7f"/><path d="m364.397 306.525c33.115-39.338 24.143-61.825-7.941-126.46-21.711-43.739 3.528-73.596 44.059-67.209-50.802-20.01-87.588 11.887-62.705 62.016 32.084 64.636 41.056 87.123 7.941 126.46-29.766 35.36-15.7 101.458 35.954 106.885-35.978-17.321-43.105-71.048-17.308-101.692z" fill="#ff8595"/><path d="m446.981 144.072c-25.547-24.596-51.042-35.846-71.694-37.149 16.363 5.229 34.46 15.95 52.586 33.401 36.988 35.611 52.703 91.359 48.297 142.494-.714 8.292-8.644 17.492-10.412 25.435s2.627 14.63-.184 22.014c-11.714 30.772-32.446 55.772-61.84 67.366-13.663 5.389-25.876 7.516-36.609 7.14 14.492 5.547 33.135 5.515 55.717-3.392 87.002-34.316 98.114-186.088 24.139-257.309z" fill="#d04d7f"/><path d="m393.396 185.985c-4.399.216-7.795 3.965-7.599 8.365.003.075.3 7.592-2.755 15.178-6.147 15.267-19.199 14.952-22.306 15.956 1.934 5.458 3.416 10.554 4.411 15.399 30.699-4.415 37.408-32.805 36.629-47.354-.234-4.397-3.977-7.764-8.38-7.544z" fill="#846069"/><path d="m366.63 254.923c-.034 5.385-.832 10.575-2.463 15.768.588.137 1.197.218 1.827.218 10.099 0 21.478 8.726 23.513 28.473.447 4.341 4.322 7.592 8.778 7.138 4.395-.453 7.591-4.383 7.138-8.778-3.435-33.328-26.501-42.524-38.793-42.819z" fill="#846069"/><path d="m420.455 253.197h-21.171c-4.418 0-8-3.582-8-8s3.582-8 8-8h21.171c4.418 0 8 3.582 8 8s-3.582 8-8 8z" fill="#846069"/><circle cx="45.071" cy="213.754" fill="#fab" r="5.683"/><ellipse cx="128.598" cy="360.2" fill="#d04d7f" rx="5.564" ry="3.851" transform="matrix(.739 -.674 .674 .739 -209.192 180.814)"/><ellipse cx="467.566" cy="281.975" fill="#d04d7f" rx="5.589" ry="3.912" transform="matrix(.317 -.948 .948 .317 51.897 636.02)"/></svg>