<svg id="Layer_1" enable-background="new 0 0 509.427 509.427" height="512" viewBox="0 0 509.427 509.427" width="512" xmlns="http://www.w3.org/2000/svg"><g><g><path d="m89.404 359.458c-7.69 0-14.83-4.924-17.293-12.642-3.048-9.553 2.224-19.769 11.777-22.818l63.864-20.381 4.36-14.742 23.954-5.814 10.731 16.579-6.95 23.5c-1.706 5.769-6.16 10.319-11.891 12.148l-73.027 23.306c-1.836.586-3.696.864-5.525.864z" fill="#ffb69e"/></g><g><path d="m186.797 299.64 12.473-42.174c2.844-9.616-2.646-19.717-12.262-22.561-9.618-2.844-19.717 2.646-22.561 12.262l-12.335 41.709z" fill="#4699f2"/></g><g><path d="m253.178 509.427c-6.903 0-12.5-5.596-12.5-12.5v-77.784h-49.198v77.784c0 6.904-5.596 12.5-12.5 12.5-6.903 0-12.5-5.596-12.5-12.5v-90.284c0-6.904 5.597-12.5 12.5-12.5h74.198c6.903 0 12.5 5.596 12.5 12.5v90.284c0 6.904-5.597 12.5-12.5 12.5z" fill="#965028"/></g><g id="XMLID_888_"><path d="m452.138 509.427c-11.044 0-21.049-7.555-23.704-18.769l-22.619-95.551c-.436-1.84-.655-3.725-.655-5.616v-99.321c0-13.465 10.915-24.38 24.38-24.38s24.38 10.915 24.38 24.38v96.475l21.964 92.781c3.102 13.103-5.006 26.239-18.108 29.341-1.89.446-3.779.66-5.638.66z" fill="#ffb69e"/></g><g id="XMLID_887_"><path d="m355.08 509.427c-.351 0-.701-.007-1.056-.022-13.452-.573-23.893-11.943-23.319-25.396l4.382-102.84c.074-1.759.34-3.504.79-5.205l24.38-92.032c3.447-13.016 16.793-20.771 29.811-17.324 13.016 3.448 20.771 16.794 17.324 29.81l-23.702 89.472-4.27 100.195c-.557 13.099-11.353 23.342-24.34 23.342z" fill="#ffb69e"/></g><g><path d="m47.546 509.427c-3.209 0-6.468-.684-9.568-2.128-11.363-5.292-16.284-18.794-10.991-30.157l54-115.935c3.15-6.762 9.421-11.545 16.775-12.793l108.547-18.428c12.353-2.097 24.077 6.219 26.175 18.577s-6.22 24.077-18.578 26.175l-96.802 16.434-48.97 105.135c-3.847 8.264-12.037 13.12-20.588 13.12z" fill="#414b82"/></g><g><path d="m142.374 509.427c-10.637.001-20.131-7.513-22.25-18.345l-19.055-97.436c-1.218-6.228.227-12.682 3.985-17.796s9.486-8.421 15.794-9.119l121.07-13.392c12.463-1.382 23.675 7.605 25.054 20.063 1.378 12.459-7.604 23.676-20.064 25.054l-96.557 10.68 14.321 73.232c2.406 12.302-5.617 24.225-17.918 26.63-1.469.291-2.936.429-4.38.429z" fill="#5f6e9b"/></g><g id="XMLID_865_"><path d="m268.37 243.946c-7.104 0-13.921-3.983-17.207-10.811-4.57-9.496-.577-20.898 8.919-25.468l82.026-39.475 64.91-62.187c7.61-7.291 19.688-7.031 26.979.578 7.29 7.609 7.031 19.688-.578 26.978l-67.102 64.286c-1.452 1.391-3.114 2.543-4.926 3.415l-84.761 40.791c-2.666 1.285-5.485 1.893-8.26 1.893z" fill="#ffab8f"/></g><g id="XMLID_886_"><path d="m356.255 121.277c2.275-12.433 12.356-21.42 24.072-21.42h42.449c11.741 0 21.793 8.961 24.072 21.42l37.522 205.066c.606 3.313-.192 6.745-2.173 9.356s-4.94 4.135-8.062 4.135c-31.711 0-113.478 0-145.167 0-3.124 0-6.084-1.515-8.066-4.127s-2.776-6.048-2.169-9.363z" fill="#ff6473"/></g><circle cx="401.551" cy="42.107" fill="#ffb69e" r="42.107"/><path d="m240.635 204.421-49.182-.383c-15.231-.119-27.675 12.133-27.794 27.364l-.802 103.056c-.165 21.232 16.912 38.577 38.144 38.743l65.896.513 1.102-141.5c.119-15.231-12.133-27.675-27.364-27.793z" fill="#64afff"/><path d="m251.896 134.859c-7.037-21.422-30.107-33.084-51.529-26.047s-33.084 30.107-26.047 51.529 30.107 33.083 51.529 26.047 33.084-30.107 26.047-51.529z" fill="#ffb69e"/><g><path d="m249.272 195.796-9.718-17.501 19.325-31.425 16.083-94.303c1.686-9.885 11.055-16.533 20.951-14.846 9.885 1.686 16.532 11.066 14.846 20.951l-16.674 97.768c-.39 2.289-1.216 4.481-2.432 6.459l-20.638 33.56z" fill="#ffab8f"/></g><g><path d="m239.553 178.294-27.175 44.19c-5.253 8.542-2.586 19.725 5.956 24.978 2.966 1.824 6.25 2.693 9.494 2.693 6.099 0 12.055-3.073 15.484-8.648l27.708-45.057z" fill="#4699f2"/></g><g id="XMLID_264_"><path d="m355.594 138.742-28.644-8.031c-1.939-.532-3.781-1.367-5.46-2.474l-67.606-44.605c-8.796-5.804-11.222-17.639-5.419-26.435s17.639-11.222 26.435-5.419l65.073 42.934 24.736 6.942 4.737 20.979z" fill="#ffb69e"/></g><g id="XMLID_889_"><path d="m407.296 113.605-42.586-11.951-9.115 37.088 41.605 11.665c.588.161 1.177.293 1.766.396 9.585 1.686 19.057-4.174 21.684-13.75 2.786-10.161-3.192-20.66-13.354-23.448z" fill="#f25766"/></g></g></svg>