<?xml version="1.0"?>
<svg xmlns="http://www.w3.org/2000/svg" xmlns:xlink="http://www.w3.org/1999/xlink" width="512" height="512" viewBox="0 0 128 128"><defs><linearGradient id="a" x1="102.794" y1="86.8" x2="28.139" y2="12.144" gradientUnits="userSpaceOnUse"><stop offset="0" stop-color="#fa5e97"/><stop offset="1" stop-color="#737ee6"/></linearGradient></defs><path d="M18.291,73.59a1.75,1.75,0,0,1-2.6,2.345,30.1,30.1,0,0,1-3.34-4.479,1.75,1.75,0,1,1,2.988-1.822A26.643,26.643,0,0,0,18.291,73.59ZM37.877,85.819a29.818,29.818,0,0,1-8.6-1.26,1.75,1.75,0,0,1,1.009-3.351A26.366,26.366,0,0,0,50.27,79.217a37.728,37.728,0,0,1,0-46.546A26.362,26.362,0,0,0,11.5,55.944a1.75,1.75,0,0,1-3.5,0A29.875,29.875,0,1,1,37.877,85.819ZM64.252,55.944a26.238,26.238,0,0,0-5.245-15.768,26.224,26.224,0,0,0,0,31.536A26.236,26.236,0,0,0,64.252,55.944ZM56.669,74.427a29.771,29.771,0,0,1,0-36.965,26.448,26.448,0,0,0-3.418-2.928,34.261,34.261,0,0,0,0,42.821A26.526,26.526,0,0,0,56.669,74.427ZM128,9.808V27.819a1.75,1.75,0,0,1-2.987,1.238l-4.94-4.94-9.438,9.439A37.845,37.845,0,0,1,80.112,93.819,37.538,37.538,0,0,1,59.027,87.38a37.7,37.7,0,0,1-15.4,6v7.576H49.5a1.75,1.75,0,0,1,1.75,1.75v8a1.751,1.751,0,0,1-1.75,1.75H43.627v5.739a1.751,1.751,0,0,1-1.75,1.75h-8a1.751,1.751,0,0,1-1.75-1.75v-5.739H26.252a1.751,1.751,0,0,1-1.75-1.75v-8a1.75,1.75,0,0,1,1.75-1.75h5.875V93.377A37.872,37.872,0,1,1,59.005,24.525a37.537,37.537,0,0,1,21.107-6.456A37.947,37.947,0,0,1,102.5,25.423l9.439-9.438L107,11.045a1.75,1.75,0,0,1,1.237-2.987h18.011A1.751,1.751,0,0,1,128,9.808ZM57.731,84.025a1.7,1.7,0,0,1,.486-.358,34.423,34.423,0,0,0,5.338-4.848c.013-.023.021-.047.035-.069a1.747,1.747,0,0,1,.376-.412A34.383,34.383,0,1,0,34.069,90.1a1.75,1.75,0,0,1,1.558,1.739V102.7a1.751,1.751,0,0,1-1.75,1.75H28v4.5h5.875a1.75,1.75,0,0,1,1.75,1.75v5.739h4.5V110.7a1.75,1.75,0,0,1,1.75-1.75h5.875v-4.5H41.877a1.751,1.751,0,0,1-1.75-1.75V91.843A1.75,1.75,0,0,1,41.685,90.1,34.247,34.247,0,0,0,57.731,84.025ZM124.5,11.558H112.462l3.189,3.19a1.748,1.748,0,0,1,0,2.474l-11.76,11.761a1.75,1.75,0,0,1-2.332.128A34.229,34.229,0,0,0,62,26.764a38.164,38.164,0,0,1,3.41,3.209,29.828,29.828,0,0,1,44.581,25.971,1.75,1.75,0,0,1-3.5,0A26.348,26.348,0,0,0,67.728,32.675a37.846,37.846,0,0,1,.036,46.557,26.333,26.333,0,0,0,35.953-11.527,1.75,1.75,0,0,1,3.13,1.566,29.808,29.808,0,0,1-41.4,12.668,37.981,37.981,0,0,1-3.422,3.2,34.035,34.035,0,0,0,18.089,5.176,34.414,34.414,0,0,0,34.375-34.375A33.97,33.97,0,0,0,106.945,34.5a1.749,1.749,0,0,1,.128-2.331l11.761-11.761a1.749,1.749,0,0,1,2.475,0l3.189,3.189Z" fill="url(#a)"/></svg>
