<svg id="Layer_1" enable-background="new 0 0 512 512" height="512" viewBox="0 0 512 512" width="512" xmlns="http://www.w3.org/2000/svg"><g><path d="m256 21.996c-135.311 0-245.002 109.691-245.002 245.002 0 121.14 87.924 221.73 203.435 241.474l170.353-33.03c69.747-43.184 116.217-120.382 116.217-208.445-.001-135.31-109.693-245.001-245.003-245.001z" fill="#2a428c"/><path d="m421.174 95.116h-.001c-11.296-3.314-23.059 3.455-25.887 14.883-8.371 33.838-22.889 73.686-33.147 100.111-1.29 3.325-6.273 1.933-5.651-1.579 8.733-49.383 16.693-116.033 17.313-141.847.25-10.431-7.278-19.418-17.588-21.024l-.15-.024c-11.884-1.851-22.843 6.727-23.914 18.706-4.094 45.828-17.861 94.981-26.838 130.66-1.422 5.65-9.781 4.441-9.55-1.381 2.522-63.732 5.324-143.449 3.128-173.386-.852-11.61-10.655-20.501-22.294-20.228-11.645.274-21.036 9.63-21.316 21.275-.977 40.518-5.375 117.034-8.224 163.932-.395 6.509-9.701 7.221-11.082.848-10.074-46.492-23.823-110.554-31.381-137.66-3.27-11.728-15.044-18.922-26.975-16.496-12.865 2.615-20.989 15.381-17.942 28.151 20.966 87.889 28.806 145.898 30.65 183.891 12.984-4.463 26.905-6.892 41.384-6.892 70.368 0 127.615 57.248 127.615 127.616 0 70.367-57.247 127.616-127.615 127.616-7.332 0-14.52-.63-21.517-1.824 1.702 5.925 3.112 11.936 4.241 18.009 13.511 2.308 27.396 3.527 41.567 3.527 47.248 0 91.364-13.388 128.785-36.558.012-3.366.003-6.054-.041-7.925-1.079-45.82 11.462-142.324 17.887-188.297 2.009-14.376 5.073-28.571 9.211-42.484 12.341-41.491 20.354-92.579 23.992-118.983 1.397-10.134-4.845-19.757-14.66-22.637z" fill="#f9ba8f"/><g fill="#fcad6d"><path d="m231.709 237.054c2.964 0 5.902.11 8.816.31-.313-.628-.667-1.243-1.079-1.842-14.316-20.811 2.889-45.107 2.889-45.107l-.002-.018c-2.677.409-5.63-.96-6.361-4.336-10.075-46.492-23.823-110.554-31.381-137.66-3.27-11.728-15.044-18.922-26.975-16.496-12.865 2.615-20.989 15.381-17.942 28.151 20.966 87.889 28.806 145.898 30.65 183.891 12.984-4.464 26.906-6.893 41.385-6.893z"/><path d="m152.501 264.684c-15.037-18.244-33.831-36.154-43.263-44.355-8.352-7.261-21.01-6.351-28.294 1.98-6.486 7.418-6.646 18.431-.372 26.031 8.693 10.531 30.49 37.019 37.014 59.267 8.401-16.735 20.373-31.378 34.915-42.923z"/><path d="m384.744 467.517c-.158-6.714-.022-14.523.343-23.096-30.618 23.921-51.278-1.671-51.278-1.671l-1.007-.291c-23.355 30.281-59.981 49.827-101.092 49.827-7.332 0-14.52-.63-21.517-1.824 1.702 5.925 3.112 11.936 4.241 18.009 13.51 2.31 27.395 3.529 41.566 3.529 47.248 0 91.364-13.388 128.785-36.558.012-3.366.002-6.053-.041-7.925z"/></g><path d="m231.709 235.284c-71.343 0-129.386 58.043-129.386 129.386s58.043 129.386 129.386 129.386 129.385-58.043 129.385-129.386-58.041-129.386-129.385-129.386z" fill="#ff7186"/><g fill="#ff4155"><path d="m266.848 378.25 1.037 1.396c.682-.131 1.379-.288 2.109-.504 16.601-4.892-3.146-.892-3.146-.892z"/><path d="m322.495 428.986h-30.13l-11.52-16.999-1.5-16.908-11.46-15.434c-14.82 2.854-18.415-13.271-18.415-13.271-23.875 1.625-18.965-19.966-18.965-19.966-6.091-2.424-3.254-10.662-3.254-10.662l-14.361-12.4s6.145-47.121 2.681-50.585 0-8.67 0-8.67c-19.524-5.408-10.952-25.946-10.952-25.946-58.381 12.487-102.296 64.47-102.296 126.524 0 71.343 58.043 129.386 129.386 129.386 42.037 0 79.45-20.156 103.099-51.306-12.783-2.102-12.313-13.763-12.313-13.763z"/></g><path d="m143.76 415.981c-9.458-16.139-14.606-35.094-13.833-55.283 2.024-52.858 44.945-95.782 97.803-97.81 20.191-.775 39.148 4.374 55.289 13.833 5.477 3.21 6.432 10.741 1.943 15.23l-125.972 125.973c-4.489 4.489-12.02 3.534-15.23-1.943z" fill="#e80054"/><path d="m158.99 417.924 71.514-71.515c-6.091-2.424-3.254-10.662-3.254-10.662l-14.361-12.4s6.145-47.121 2.681-50.585c-3.463-3.463-.002-8.667 0-8.67-47.139 7.572-83.778 47.865-85.644 96.605-.773 20.189 4.376 39.144 13.833 55.283 3.211 5.478 10.742 6.433 15.231 1.944z" fill="#c90656"/><path d="m235.685 466.453c-20.19.773-39.146-4.375-55.286-13.833-5.477-3.21-6.432-10.741-1.943-15.23l125.972-125.972c4.489-4.489 12.021-3.534 15.23 1.943 9.459 16.141 14.607 35.097 13.833 55.288-2.027 52.857-44.948 95.779-97.806 97.804z" fill="#e80054"/><g fill="#c90656"><path d="m266.848 378.25 1.037 1.396c.682-.131 1.379-.288 2.109-.504 16.601-4.892-3.146-.892-3.146-.892z"/><path d="m180.399 452.62c16.14 9.458 35.095 14.607 55.286 13.833 30.07-1.152 56.92-15.544 74.859-37.466h-18.178l-11.52-16.999-1.5-16.908-11.46-15.434c-14.82 2.854-18.415-13.271-18.415-13.271l-71.014 71.015c-4.49 4.488-3.535 12.02 1.942 15.23z"/></g><g><path d="m183.123 364.66c-4.49 0-8.129-3.64-8.129-8.129v-28.709c0-4.49 3.639-8.129 8.129-8.129s8.129 3.64 8.129 8.129v28.709c0 4.489-3.639 8.129-8.129 8.129z" fill="#ffdd40"/></g><g><path d="m159.786 295.544c-1.379 0-2.776-.351-4.057-1.091l-24.863-14.354c-3.888-2.245-5.22-7.217-2.975-11.105 2.243-3.888 7.215-5.221 11.105-2.975l24.863 14.354c3.888 2.245 5.22 7.216 2.975 11.104-1.506 2.609-4.239 4.067-7.048 4.067z" fill="#ffdd40"/></g><g><path d="m206.46 295.544c-2.809 0-5.542-1.458-7.047-4.066-2.245-3.888-.912-8.86 2.975-11.104l24.863-14.354c3.886-2.245 8.859-.913 11.104 2.975s.912 8.86-2.975 11.105l-24.863 14.354c-1.279.738-2.677 1.09-4.057 1.09z" fill="#ffdd40"/></g><circle cx="321.57" cy="356.531" fill="#ffdd40" r="17.438"/><circle cx="102.323" cy="364.67" fill="#50dd89" r="17.438"/><ellipse cx="105.948" cy="361.366" fill="#70f2a4" rx="7.509" ry="7.509" transform="matrix(.16 -.987 .987 .16 -267.723 408.062)"/><ellipse cx="324.815" cy="353.857" fill="#fcf2c8" rx="7.509" ry="7.509" transform="matrix(.23 -.973 .973 .23 -94.203 588.684)"/><g><path d="m292.404 433.607c-1.319-4.291 1.09-8.84 5.381-10.159l14.509-4.461c4.289-1.319 8.838 1.089 10.159 5.381 1.319 4.291-1.09 8.84-5.381 10.159l-14.509 4.461c-4.264 1.311-8.831-1.062-10.159-5.381z" fill="#50dd89"/></g><g><path d="m275.592 421.63c-2.776-3.529-2.165-8.64 1.364-11.415l13.889-10.923c3.531-2.776 8.639-2.164 11.416 1.365 2.775 3.529 2.165 8.64-1.365 11.415l-13.889 10.923c-3.538 2.781-8.645 2.156-11.415-1.365z" fill="#50dd89"/></g><g><path d="m310.401 462.868-17.631-1.232c-4.479-.313-7.856-4.197-7.543-8.676.312-4.479 4.203-7.857 8.675-7.543l17.631 1.232c4.478.313 7.856 4.197 7.543 8.676-.313 4.489-4.207 7.856-8.675 7.543z" fill="#50dd89"/></g><circle cx="183.123" cy="300.883" fill="#ffb332" r="34.215"/><path d="m212.89 317.744c-1.915-1.001-4.565-1.289-8.241-.333-16.106 4.187-16.959-9.803-16.959-9.803s3.562-6.724-4.567-14.853 0-17.956 0-17.956l1.38-8.094c-.458-.018-.917-.035-1.38-.035-18.896 0-34.215 15.319-34.215 34.215s15.319 34.215 34.215 34.215c12.763-.002 23.887-6.996 29.767-17.356z" fill="#ff9100"/><g><path d="m183.123 274.797c-4.49 0-8.129-3.64-8.129-8.129v-21.433c0-4.49 3.639-8.129 8.129-8.129s8.129 3.64 8.129 8.129v21.433c0 4.49-3.639 8.129-8.129 8.129z" fill="#ffdd40"/></g><g><path d="m231.308 336.838c-1.379 0-2.776-.351-4.057-1.09l-18.566-10.719c-3.888-2.245-5.22-7.216-2.975-11.105 2.244-3.888 7.215-5.221 11.105-2.975l18.566 10.719c3.888 2.245 5.221 7.216 2.975 11.105-1.506 2.606-4.239 4.065-7.048 4.065z" fill="#ffdd40"/></g><g><path d="m134.938 336.838c-2.809 0-5.542-1.458-7.047-4.066-2.245-3.888-.912-8.86 2.975-11.105l18.566-10.719c3.886-2.245 8.861-.913 11.104 2.975 2.245 3.888.913 8.86-2.975 11.105l-18.566 10.719c-1.28.739-2.678 1.091-4.057 1.091z" fill="#ffdd40"/></g><g><path d="m183.123 309.012h-3.835c-4.49 0-8.129-3.64-8.129-8.129 0-4.49 3.639-8.129 8.129-8.129h3.835c4.49 0 8.129 3.64 8.129 8.129s-3.639 8.129-8.129 8.129z" fill="#ffdd40"/></g><g><path d="m226.977 433.007c-1.794-4.115.088-8.906 4.203-10.7l13.674-5.961c4.119-1.796 8.907.088 10.7 4.203 1.794 4.115-.088 8.906-4.203 10.7l-13.675 5.961c-4.123 1.8-8.91-.096-10.699-4.203z" fill="#50dd89"/></g><g><path d="m238.62 470.871c-.829-4.413 2.077-8.661 6.49-9.49l14.662-2.753c4.413-.826 8.661 2.077 9.489 6.49.829 4.413-2.077 8.661-6.49 9.49l-14.662 2.753c-4.421.828-8.661-2.084-9.489-6.49z" fill="#50dd89"/></g><path d="m248.615 403.858c-5.689 8.867-3.115 20.673 5.754 26.364 9.057 5.81 12.7 17.664 8.473 27.567-4.135 9.691.371 20.903 10.061 25.039 9.694 4.137 20.902-.369 25.039-10.061 5.815-13.63 6.309-28.292 2.232-41.55s-12.726-25.111-25.196-33.113c-8.867-5.691-20.671-3.116-26.363 5.754z" fill="#38c674"/><path d="m300.446 432.175c-.092-.319-.174-.64-.272-.957-4.077-13.258-12.726-25.111-25.196-33.113-8.868-5.691-20.671-3.116-26.364 5.754-5.689 8.867-3.115 20.673 5.754 26.364 6.815 4.372 10.561 12.166 10.199 19.976 5.507-3.427 9.647 1.723 9.647 1.723l13.592-7.454c0-7.7 5.875-8.366 5.875-8.366z" fill="#1ba552"/><g><path d="m243.724 410.351-14.718-11.087c-3.586-2.701-4.303-7.798-1.602-11.384s7.799-4.303 11.384-1.602l14.718 11.087c3.586 2.701 4.303 7.798 1.602 11.384-2.705 3.591-7.803 4.3-11.384 1.602z" fill="#50dd89"/></g><g><path d="m273.6 406.115c-4.425-.762-7.393-4.966-6.633-9.391l3.027-17.582c.762-4.424 4.965-7.392 9.391-6.632 4.424.762 7.393 4.966 6.632 9.391l-3.027 17.582c-.76 4.416-4.955 7.394-9.39 6.632z" fill="#50dd89"/></g><g><path d="m292.406 433.613c-1.319-4.291 1.089-8.84 5.381-10.16l14.508-4.462c4.29-1.319 8.838 1.089 10.159 5.381 1.319 4.291-1.089 8.84-5.381 10.159l-14.508 4.462c-4.272 1.314-8.833-1.07-10.159-5.38z" fill="#50dd89"/></g><g><path d="m264.331 507.961c-4.249-1.448-6.52-6.068-5.071-10.317l5.944-17.441c1.448-4.25 6.071-6.52 10.317-5.072 4.249 1.448 6.52 6.068 5.071 10.317l-5.944 17.441c-1.446 4.245-6.064 6.523-10.317 5.072z" fill="#50dd89"/></g><g><path d="m304.473 491.258-12.384-12.843c-3.117-3.232-3.023-8.378.208-11.495 3.233-3.117 8.38-3.022 11.494.209l12.384 12.843c3.117 3.232 3.023 8.378-.208 11.495-3.227 3.111-8.374 3.028-11.494-.209z" fill="#50dd89"/></g><ellipse cx="283.06" cy="451.921" fill="#50dd89" rx="8.845" ry="8.845" transform="matrix(.924 -.383 .383 .924 -151.396 142.722)"/></g></svg>